Coordinates
version=1
nRows=12
nColumns=42
inDegrees=yes

Units are S.I. units (second, meters, Newtons, ...)
If the header above contains a line with 'inDegrees', this indicates whether rotational values are in degrees (yes) or radians (no).

endheader
time	pelvis_tilt	pelvis_list	pelvis_rotation	pelvis_tx	pelvis_ty	pelvis_tz	hip_flexion_r	hip_adduction_r	hip_rotation_r	knee_angle_r	knee_angle_r_beta	ankle_angle_r	subtalar_angle_r	mtp_angle_r	hip_flexion_l	hip_adduction_l	hip_rotation_l	knee_angle_l	knee_angle_l_beta	ankle_angle_l	subtalar_angle_l	mtp_angle_l	lumbar_extension	lumbar_bending	lumbar_rotation	sh_tx_r	sh_ty_r	sh_tz_r	sh_plane_elev_r	sh_elev_r	sh_axial_rot_r	elbow_flex_r	pro_sup_r	sh_tx_l	sh_ty_l	sh_tz_l	sh_plane_elev_l	sh_elev_l	sh_axial_rot_l	elbow_flex_l	pro_sup_l
      0.00000000	     -6.34085234	     -0.88189774	      0.42615703	      0.26764610	      0.92785415	     -0.07439854	      6.78001561	     -4.01025519	     -6.31075118	      5.53233217	      0.09655741	     -6.02650522	    -19.76488673	     -4.85311083	      5.96011631	     -4.13238506	     -4.56651388	      6.61059364	      0.11537662	     10.90499417	     -3.18549725	     -4.85311083	      0.90117398	      4.24860962	     -3.03220014	     -0.00366416	     -0.01101675	     -0.00587576	     16.89621507	      8.64605968	      1.37455923	     25.79150262	     74.21448958	     -0.01398440	      0.01909017	     -0.00553029	      4.58644091	     50.10658142	     -0.38199879	     88.14890059	     63.81177464
      0.01694910	     -8.27838738	     -0.78021693	      1.04504662	      0.27010086	      0.92509177	     -0.07581199	      8.43185445	     -4.05225665	     -6.61873581	      4.98848574	      0.08706550	     -2.57737674	    -16.48008241	     -5.83302741	      8.42651135	     -3.69067400	     -4.66872152	      5.93410316	      0.10356964	     11.18268278	     -0.37425163	     -5.83302741	      3.54472958	      3.73032101	     -3.40570048	     -0.00598400	     -0.01207030	     -0.00674682	      9.13832456	      6.98337110	      2.91277224	     27.19626242	     80.55592387	     -0.01661665	      0.02373321	     -0.00650613	      5.54297143	     55.40994493	      1.25660665	     89.26124883	     72.25311190
      0.03389830	     -8.23520527	     -0.22829602	      1.35600695	      0.27390413	      0.92535800	     -0.08019182	      7.60369658	     -4.93058553	     -7.61334064	      3.90359748	      0.06813063	     -1.81585956	    -15.24404800	     -5.94175897	      8.08876175	     -3.14407373	     -5.76393690	      5.34390480	      0.09326873	     10.91191553	      1.26996386	     -5.94175897	      3.60684836	      2.87175048	     -3.80392903	     -0.00871971	     -0.01180370	     -0.00649022	      8.02639117	      6.52386012	      2.35680733	     27.35674351	     80.27854437	     -0.01963415	      0.02368137	     -0.00617807	      5.33653184	     58.63223599	      2.49475085	     91.84956016	     72.99585592
      0.05084750	     -8.12014069	      0.01289656	      1.97458723	      0.27432553	      0.92369186	     -0.08104947	      6.88316320	     -5.37730685	     -8.33096990	      3.26024858	      0.05690207	     -1.06122523	    -14.66807563	     -6.28796176	      7.41451672	     -2.71209647	     -5.68022357	      4.35201078	      0.07595692	     10.44632780	      1.74608383	     -6.28796176	      3.73812325	      2.46301125	     -4.49257436	     -0.00789221	     -0.01330162	     -0.00655850	      1.31021904	      5.41380458	      4.75638131	     27.93236868	     84.05009319	     -0.02112784	      0.02297955	     -0.00578486	      4.34851581	     60.94287514	      2.61949245	     94.13746778	     82.29962741
      0.06779660	     -7.82082254	      0.10417083	      2.44206188	      0.27386803	      0.92491453	     -0.08109447	      6.11989128	     -5.48362508	     -8.54890906	      2.72819462	      0.04761598	     -0.37760201	    -14.45891468	     -6.22029103	      6.77421669	     -2.51500251	     -5.57262270	      3.77314630	      0.06585383	     10.31483320	      2.26584210	     -6.22029103	      3.54964151	      2.35814370	     -5.01621610	     -0.00778503	     -0.01430759	     -0.00657234	      0.70595912	      5.08261862	      4.25229682	     27.75917190	     84.15447395	     -0.02384740	      0.02364080	     -0.00559377	      3.92864116	     62.15283979	      2.41796672	     95.39587797	     83.09504884
      0.08474580	     -7.83687740	      0.11120812	      2.68713988	      0.26979600	      0.92521154	     -0.07680952	      6.03245497	     -5.32695760	     -8.63416241	      2.44959689	      0.04275353	      0.08734485	    -14.64754088	     -6.22300592	      6.83393092	     -2.51094225	     -5.62970262	      3.60743997	      0.06296171	     10.21356466	      2.24077232	     -6.22300592	      3.65732040	      2.29387692	     -4.82708592	     -0.00737756	     -0.01526564	     -0.00663325	      0.66891601	      4.81108331	      4.18346525	     27.88363500	     84.14410477	     -0.02295891	      0.02676420	     -0.00511874	      3.73554635	     62.57286260	      2.21981943	     95.36309292	     83.11369915
      0.10169490	     -7.35841015	      0.24307167	      2.95605568	      0.27345977	      0.92604458	     -0.08152366	      5.22296226	     -5.39151955	     -9.18345898	      2.01452924	      0.03516017	      0.49850482	    -14.13166100	     -6.35919184	      6.18286595	     -2.30262977	     -5.52385753	      3.25954323	      0.05688976	      9.73872692	      2.21939683	     -6.35919184	      2.98834294	      2.30049110	     -4.84375996	     -0.00721005	     -0.01584573	     -0.00656254	     -0.41568085	      4.76854451	      3.52623754	     28.67494986	     82.71947651	     -0.02396451	      0.02579924	     -0.00503411	      2.58833922	     63.22263413	      1.65058582	     96.66586628	     82.88486848
      0.11864410	     -7.14795463	      0.28759399	      3.15587758	      0.26933587	      0.92927712	     -0.07697011	      4.90987819	     -5.26375102	     -9.65727872	      1.72333019	      0.03007779	      0.86359020	    -13.75294527	     -6.44866787	      6.01034680	     -2.28287240	     -5.51485177	      3.13294265	      0.05468016	      9.38044834	      2.14604668	     -6.44866787	      2.81225784	      2.21858281	     -4.91430872	     -0.00509243	     -0.01658244	     -0.00660282	      0.01637490	      4.70046312	      3.72662143	     28.71590307	     82.13227856	     -0.02383284	      0.02633351	     -0.00480340	      2.44872180	     63.29842979	      1.77232584	     96.75371551	     82.76517268
      0.13559320	     -6.89797998	      0.32213132	      3.40966054	      0.27309186	      0.92672445	     -0.08178152	      4.46496485	     -5.27190826	    -10.01027114	      1.49865352	      0.02615644	      0.69546421	    -13.96207897	     -6.68495961	      5.78195417	     -2.21606352	     -5.59755534	      3.13763735	      0.05476210	      9.06515950	      2.32636305	     -6.68495961	      2.30098935	      2.33593424	     -4.67382216	     -0.00626103	     -0.01682279	     -0.00651895	     -0.44852515	      5.01893932	      4.29691442	     29.31399484	     79.83763957	     -0.02378546	      0.02715313	     -0.00454454	      1.74300830	     62.66729325	      1.59456591	     98.50068109	     80.92198438
      0.15254240	     -6.72381904	      0.34317207	      3.49586277	      0.27298985	      0.92973044	     -0.08187526	      4.20432193	     -5.31713632	    -10.19530458	      1.30734623	      0.02281750	      0.68670192	    -13.98331634	     -6.91482936	      5.53671037	     -2.15594807	     -5.74067205	      3.01196100	      0.05256864	      8.94728435	      2.42973208	     -6.91482936	      1.97104153	      2.48913498	     -4.45937811	     -0.00721499	     -0.01689096	     -0.00642295	     -1.10655524	      5.23573641	      4.20322781	     29.40871732	     83.85827324	     -0.02409264	      0.02816760	     -0.00445755	      1.26260079	     62.50885125	      1.33036012	     99.34676387	     84.98487883
      0.16949150	     -6.55067522	      0.25701983	      3.74461129	      0.27264758	      0.92714918	     -0.08183363	      3.92488543	     -5.28216471	    -10.34103607	      1.16257735	      0.02029080	      0.69232599	    -13.90322272	     -6.98980635	      5.34627251	     -2.22203641	     -5.63053058	      2.92319377	      0.05101936	      8.88252869	      2.45802753	     -6.98980635	      1.63997724	      2.63342249	     -4.71429611	     -0.00760520	     -0.01678541	     -0.00632334	     -1.01759276	      5.42579957	      4.83810083	     29.65708572	     82.73990450	     -0.02504792	      0.02830736	     -0.00440105	      0.67803013	     63.11291519	      1.62377526	    101.02805887	     84.06710311
      0.18644070	     -6.42491164	      0.26521893	      3.92504079	      0.27275278	      0.92998096	     -0.08197072	      3.68364222	     -5.31926475	    -10.46980257	      1.05383519	      0.01839289	      0.71300116	    -13.74931776	     -7.12409873	      5.15884051	     -2.24347804	     -5.55229733	      2.82501924	      0.04930589	      8.78672304	      2.80237363	     -7.12409873	      1.49812951	      2.63305811	     -4.99283042	     -0.00741355	     -0.01662654	     -0.00635271	     -1.06394565	      5.50584130	      5.82878455	     29.67713135	     80.08497242	     -0.02544014	      0.02904913	     -0.00435803	      0.42358895	     63.92558365	      1.85903487	    101.67674279	     81.68580876
